<svg width="169" height="16" viewBox="0 0 169 16" fill="none" xmlns="http://www.w3.org/2000/svg">
<path d="M0 15H2.51953L6.25 4.74609C6.33464 4.51172 6.40299 4.28711 6.45508 4.07227C6.51367 3.85742 6.56901 3.64583 6.62109 3.4375H6.69922C6.74479 3.64583 6.79688 3.85742 6.85547 4.07227C6.91406 4.28711 6.98568 4.51172 7.07031 4.74609L10.8008 15H13.6035L8.13477 0.712891H5.42969L0 15ZM2.76367 11.6797H10.6836L10.0391 9.70703H3.4082L2.76367 11.6797Z" fill="white"/>
<path d="M15.3512 15H24.5113V12.9395H17.9977V0.78125H15.3512V15Z" fill="white"/>
<path d="M26.7668 15H36.3957V12.959H29.384V8.69141H35.3703V6.68945H29.384V2.8418H36.2883V0.78125H26.7668V15Z" fill="white"/>
<path d="M37.45 15H40.1941L44.2664 8.51562H44.6668L49.5789 0.78125H46.8836L43.0848 7.00195H42.6746L37.45 15ZM37.6648 0.78125L42.7039 8.56445H42.7625L46.8445 15H49.9109L44.618 6.98242H44.5594L40.702 0.791016L37.6648 0.78125Z" fill="white"/>
<path d="M51.7074 13.6621C51.7074 14.0918 51.8474 14.4564 52.1273 14.7559C52.4138 15.0553 52.8207 15.2051 53.348 15.2051C53.8754 15.2051 54.279 15.0553 54.559 14.7559C54.8389 14.4564 54.9789 14.0918 54.9789 13.6621C54.9789 13.2324 54.8389 12.8678 54.559 12.5684C54.279 12.2624 53.8754 12.1094 53.348 12.1094C52.8207 12.1094 52.4138 12.2624 52.1273 12.5684C51.8474 12.8678 51.7074 13.2324 51.7074 13.6621Z" fill="white"/>
<path d="M62.8199 11.0352C62.8264 12.3958 63.3408 13.444 64.3629 14.1797C65.3915 14.9154 66.7327 15.2832 68.3863 15.2832C70.053 15.2832 71.3811 14.9089 72.3707 14.1602C73.3603 13.4115 73.8551 12.3893 73.8551 11.0938C73.8486 9.85677 73.4612 8.90625 72.693 8.24219C71.9313 7.57812 70.7789 7.04102 69.2359 6.63086C67.7776 6.24023 66.8238 5.89844 66.3746 5.60547C65.9319 5.30599 65.7105 4.89258 65.7105 4.36523C65.7105 3.79883 65.9189 3.35286 66.3355 3.02734C66.7522 2.70182 67.4033 2.53906 68.2887 2.53906C69.1741 2.53906 69.8382 2.73763 70.2809 3.13477C70.7236 3.5319 70.9449 4.05924 70.9449 4.7168V4.92188H73.5621V4.66797C73.5556 3.47656 73.0738 2.48372 72.1168 1.68945C71.1598 0.895182 69.8805 0.498047 68.2789 0.498047C66.6643 0.498047 65.3915 0.869141 64.4605 1.61133C63.5361 2.35352 63.0738 3.32682 63.0738 4.53125C63.0738 5.68359 63.4417 6.58203 64.1773 7.22656C64.9195 7.86458 66.0719 8.39193 67.6344 8.80859C69.0927 9.19271 70.053 9.55078 70.5152 9.88281C70.984 10.2148 71.2184 10.6738 71.2184 11.2598C71.2184 11.8652 70.9742 12.3503 70.4859 12.7148C69.9977 13.0794 69.2945 13.2617 68.3766 13.2617C67.4586 13.2617 66.7457 13.0729 66.2379 12.6953C65.7301 12.3177 65.4729 11.748 65.4664 10.9863V10.7617H62.8199V11.0352Z" fill="white"/>
<path d="M76.423 15H79.0695V8.71094H85.3879V15H88.0246V0.78125H85.3879V6.63086H79.0695V0.78125H76.423V15Z" fill="white"/>
<path d="M91.4324 15H101.061V12.959H94.0496V8.69141H100.036V6.68945H94.0496V2.8418H100.954V0.78125H91.4324V15Z" fill="white"/>
<path d="M101.911 0.78125L107.233 15.0684H109.967L115.28 0.78125H112.702L109.069 10.752C109.004 10.9408 108.942 11.1426 108.883 11.3574C108.825 11.5723 108.776 11.7904 108.737 12.0117H108.659C108.613 11.7904 108.561 11.5755 108.502 11.3672C108.45 11.1523 108.388 10.9473 108.317 10.752L104.752 0.78125H101.911Z" fill="white"/>
<path d="M115.768 2.8418H120.201V15H122.848V2.8418H127.281V0.78125H115.768V2.8418Z" fill="white"/>
<path d="M128.492 11.0352C128.498 12.3958 129.013 13.444 130.035 14.1797C131.063 14.9154 132.405 15.2832 134.058 15.2832C135.725 15.2832 137.053 14.9089 138.043 14.1602C139.032 13.4115 139.527 12.3893 139.527 11.0938C139.52 9.85677 139.133 8.90625 138.365 8.24219C137.603 7.57812 136.451 7.04102 134.908 6.63086C133.449 6.24023 132.496 5.89844 132.046 5.60547C131.604 5.30599 131.382 4.89258 131.382 4.36523C131.382 3.79883 131.591 3.35286 132.007 3.02734C132.424 2.70182 133.075 2.53906 133.961 2.53906C134.846 2.53906 135.51 2.73763 135.953 3.13477C136.395 3.5319 136.617 4.05924 136.617 4.7168V4.92188H139.234V4.66797C139.227 3.47656 138.746 2.48372 137.789 1.68945C136.832 0.895182 135.552 0.498047 133.951 0.498047C132.336 0.498047 131.063 0.869141 130.132 1.61133C129.208 2.35352 128.746 3.32682 128.746 4.53125C128.746 5.68359 129.114 6.58203 129.849 7.22656C130.591 7.86458 131.744 8.39193 133.306 8.80859C134.765 9.19271 135.725 9.55078 136.187 9.88281C136.656 10.2148 136.89 10.6738 136.89 11.2598C136.89 11.8652 136.646 12.3503 136.158 12.7148C135.67 13.0794 134.966 13.2617 134.048 13.2617C133.13 13.2617 132.418 13.0729 131.91 12.6953C131.402 12.3177 131.145 11.748 131.138 10.9863V10.7617H128.492V11.0352Z" fill="white"/>
<path d="M141.558 8.29102C141.558 10.5827 142.15 12.321 143.335 13.5059C144.527 14.6908 146.057 15.2832 147.925 15.2832C149.787 15.2832 151.314 14.6908 152.505 13.5059C153.703 12.321 154.302 10.5827 154.302 8.29102V7.48047C154.302 5.19531 153.703 3.46029 152.505 2.27539C151.314 1.09049 149.787 0.498047 147.925 0.498047C146.057 0.498047 144.527 1.09049 143.335 2.27539C142.15 3.46029 141.558 5.19531 141.558 7.48047V8.29102ZM144.273 8.52539V7.25586C144.273 5.68685 144.601 4.51172 145.259 3.73047C145.923 2.94922 146.812 2.55859 147.925 2.55859C149.038 2.55859 149.927 2.94922 150.591 3.73047C151.262 4.51172 151.597 5.68685 151.597 7.25586V8.53516C151.597 10.0977 151.262 11.2728 150.591 12.0605C149.927 12.8418 149.038 13.2324 147.925 13.2324C146.818 13.2324 145.933 12.8418 145.269 12.0605C144.605 11.2728 144.273 10.0944 144.273 8.52539Z" fill="white"/>
<path d="M155.405 0.78125L160.727 15.0684H163.462L168.774 0.78125H166.196L162.563 10.752C162.498 10.9408 162.436 11.1426 162.378 11.3574C162.319 11.5723 162.27 11.7904 162.231 12.0117H162.153C162.108 11.7904 162.055 11.5755 161.997 11.3672C161.945 11.1523 161.883 10.9473 161.811 10.752L158.247 0.78125H155.405Z" fill="white"/>
</svg>
